<?xml version="1.0" standalone="no"?>
<!DOCTYPE svg PUBLIC "-//W3C//DTD SVG 20010904//EN"
 "http://www.w3.org/TR/2001/REC-SVG-20010904/DTD/svg10.dtd">
<svg version="1.0" xmlns="http://www.w3.org/2000/svg"
 width="1242.000000pt" height="733.000000pt" viewBox="0 0 1242.000000 733.000000"
 preserveAspectRatio="xMidYMid meet">
<metadata>
Created by potrace 1.16, written by Peter Selinger 2001-2019
</metadata>
<g transform="translate(0.000000,733.000000) scale(0.100000,-0.100000)"
fill="#000000" stroke="none">
<path d="M10672 7319 c-201 -26 -330 -108 -382 -245 -26 -66 -38 -225 -26
-337 l7 -66 267 2 c231 2 275 0 325 -16 31 -10 57 -22 57 -27 0 -5 -26 -18
-57 -30 -77 -30 -241 -37 -455 -20 -426 34 -600 5 -733 -121 -122 -115 -174
-323 -162 -644 8 -229 41 -360 120 -478 45 -66 114 -117 192 -139 22 -7 103
-12 180 -12 l139 -1 32 220 c18 125 41 244 53 276 41 108 129 180 262 216 55
14 120 17 449 18 483 2 521 10 619 121 81 93 101 205 103 591 1 308 -8 386
-51 472 -48 93 -164 165 -312 195 -154 31 -480 44 -627 25z m-57 -236 l55 -27
0 -72 c0 -79 -8 -91 -73 -119 -73 -30 -138 -7 -152 55 -11 51 20 131 63 162
20 14 40 27 44 27 4 1 32 -11 63 -26z"/>
<path d="M9565 5105 c-27 -7 -93 -34 -145 -58 -127 -59 -176 -74 -299 -91 -84
-12 -120 -22 -185 -55 -94 -46 -293 -174 -418 -269 -97 -72 -97 -72 -80 -181
l7 -44 95 -41 94 -42 18 -90 c65 -323 63 -480 -12 -719 -17 -55 -42 -168 -55
-251 -53 -326 -55 -331 -228 -593 -280 -422 -381 -670 -394 -966 -11 -256 55
-440 240 -673 30 -37 59 -78 66 -90 20 -37 -2 -138 -62 -282 -48 -117 -51
-131 -51 -212 -1 -51 4 -92 10 -98 21 -21 258 -30 484 -20 215 10 650 47 659
56 14 13 -32 75 -71 95 -82 41 -100 59 -93 87 4 15 42 104 85 199 43 94 86
196 94 224 21 71 20 192 -4 323 -11 60 -20 136 -20 169 0 69 0 68 174 262 280
311 373 476 451 805 46 194 63 215 279 357 201 131 314 208 346 235 21 17 26
31 32 102 10 124 9 442 -2 626 -16 252 -49 490 -69 490 -4 0 -28 -13 -53 -29
-34 -22 -53 -44 -73 -86 -26 -52 -29 -70 -36 -223 -4 -92 -12 -182 -18 -200
-37 -122 -135 -195 -307 -228 l-76 -14 -37 31 c-119 102 -177 216 -245 486
-20 76 -51 183 -70 238 -62 176 -49 250 69 385 99 114 122 187 90 296 -26 92
-37 104 -93 103 -26 0 -69 -6 -97 -14z"/>
<path d="M0 1726 l0 -706 130 0 130 0 0 591 0 591 203 -4 c167 -3 208 -7 235
-21 96 -51 104 -210 15 -302 -44 -45 -148 -97 -230 -114 l-60 -13 8 -52 c29
-184 30 -186 54 -186 12 0 66 11 119 25 327 82 488 290 448 576 -21 147 -90
242 -211 291 -54 22 -67 23 -448 26 l-393 3 0 -705z"/>
<path d="M4130 2224 c0 -192 -1 -206 -17 -199 -155 59 -382 37 -509 -50 -121
-84 -186 -262 -170 -472 21 -280 133 -430 353 -473 96 -19 361 -7 498 22 l110
23 3 678 2 677 -135 0 -135 0 0 -206z m-45 -419 l40 -20 3 -257 2 -256 -50
-11 c-28 -6 -86 -11 -128 -11 -121 1 -178 35 -224 135 -20 43 -23 66 -23 170
0 104 3 125 22 160 26 49 57 79 103 100 50 22 201 16 255 -10z"/>
<path d="M6007 2060 c-142 -26 -233 -80 -276 -165 -21 -40 -27 -67 -29 -141
-5 -124 14 -191 72 -248 64 -64 111 -77 310 -83 154 -5 170 -8 193 -27 19 -17
26 -32 27 -63 2 -85 -77 -121 -233 -109 -102 9 -209 28 -270 50 -24 9 -47 16
-52 16 -5 0 -9 -51 -9 -114 l0 -114 93 -24 c81 -20 116 -23 287 -23 181 0 199
2 253 23 81 33 137 79 166 137 24 45 26 61 26 165 0 101 -3 121 -24 164 -25
51 -83 100 -149 125 -24 9 -102 16 -214 20 -175 6 -178 6 -204 32 -56 56 -25
136 61 158 101 25 321 5 439 -40 28 -10 52 -19 54 -19 1 0 2 51 2 114 l0 114
-32 11 c-126 41 -378 62 -491 41z"/>
<path d="M1480 2054 c-14 -2 -59 -9 -100 -15 -41 -6 -92 -15 -112 -20 l-38
-10 0 -108 0 -108 88 18 c48 11 146 22 219 26 113 5 139 3 179 -12 59 -22 84
-62 84 -133 l0 -53 -57 7 c-84 12 -259 8 -328 -6 -128 -26 -227 -100 -253
-188 -18 -58 -15 -190 5 -247 10 -31 34 -67 63 -96 64 -64 143 -89 284 -89
110 0 176 15 260 57 l49 25 41 -41 42 -41 82 0 83 0 -3 398 -3 397 -28 57
c-41 83 -108 133 -222 165 -49 14 -285 26 -335 17z m298 -600 c20 -6 22 -12
22 -85 l0 -78 -43 -25 c-129 -76 -293 -68 -328 16 -33 80 1 154 80 177 36 10
224 6 269 -5z"/>
<path d="M2300 1540 l0 -520 135 0 135 0 0 360 0 359 43 29 c98 68 203 88 280
54 82 -36 82 -34 85 -444 l3 -358 134 0 135 0 0 343 c0 189 -5 371 -11 406
-15 92 -44 154 -98 204 -67 63 -130 82 -261 81 -124 0 -187 -21 -278 -89 l-57
-44 -15 67 -15 67 -108 3 -107 3 0 -521z"/>
<path d="M4920 2054 c-14 -2 -59 -9 -100 -15 -41 -6 -92 -15 -112 -20 l-38
-10 0 -108 0 -108 88 18 c48 11 146 22 219 26 156 7 211 -7 244 -61 19 -31 28
-136 12 -136 -5 0 -51 5 -103 10 -183 20 -367 -16 -450 -87 -63 -54 -90 -119
-90 -219 0 -114 21 -176 79 -234 66 -65 144 -90 285 -90 112 0 174 14 255 54
l54 28 41 -41 42 -41 82 0 83 0 -3 398 -3 397 -28 57 c-41 83 -108 133 -222
165 -49 14 -285 26 -335 17z m298 -600 c20 -6 22 -12 22 -85 l0 -78 -43 -25
c-126 -74 -295 -67 -326 13 -32 83 0 158 77 180 36 10 225 7 270 -5z"/>
</g>
</svg>
